# xmcd
#
# Track frame offsets:
#	150
#	8176
#	18010
#	30072
#	40202
#	49986
#	59992
#	70324
#	84006
#	94738
#	104289
#	117971
#	155951
#	171434
#	186290
#	202845
#	213967
#	228294
#	240293
#	249969
#	259899
#	271476
#	280397
#	291105
#	303758
#	315751
#
# Disc length: 4317 seconds
#
# Revision: 1
# Processed by: cddbd v1.5.1PL2 Copyright (c) Steve Scherf et al.
# Submitted via: EasyCDDAExtractor 6.2.0.3
#
DISCID=5c10db1a
DTITLE=Johnny Cash - The Legend  ( 4 CD-Box ) - CD 3
DYEAR=2005
DGENRE=Country
TTITLE0=The Wreck Of The Old 97 
TTITLE1=Rock Island Line 
TTITLE2=Goodnight Irene 
TTITLE3=Goodbye, Little Darlin' 
TTITLE4=Born To Lose 
TTITLE5=Walking The Blues 
TTITLE6=Frankie's Man, Johnny 
TTITLE7=Delia's Gone 
TTITLE8=In The Jailhouse Now 
TTITLE9=Waiting For A Train 
TTITLE10=Casey Jones 
TTITLE11=The Legend Of John Henry's Hammer
TTITLE12=I've Been Working On The Railroad (Previously Unreleased)
TTITLE13=Sweet Betsy From Pike 
TTITLE14=The Streets Of Laredo 
TTITLE15=Bury Me Not On The Lone Prairie
TTITLE16=Down In The Valley (Previously Unreleased)
TTITLE17=Wabash Cannonball 
TTITLE18=The Great Speckle Bird 
TTITLE19=Wildwood Flower 
TTITLE20=Cotton Fields
TTITLE21=Pick A Bale O' Cotton 
TTITLE22=Old Shep 
TTITLE23=I'll Be All Smiles Tonight
TTITLE24=I'm So Lonesome I Could Cry
TTITLE25=Time Changes Everything 
EXTD=Disc Three:\n      The Great American Songbook (hauptsächlich Traditional
EXTD=s]\nSONY BMG Music Entertainment\nCOL 517461 2  ( 5 099751 746126 )
EXTT0=
EXTT1=
EXTT2=
EXTT3=
EXTT4=
EXTT5=
EXTT6=
EXTT7=
EXTT8=
EXTT9=
EXTT10=
EXTT11=
EXTT12=
EXTT13=
EXTT14=
EXTT15=
EXTT16=
EXTT17=
EXTT18=
EXTT19=
EXTT20=
EXTT21=
EXTT22=
EXTT23=
EXTT24=
EXTT25=
PLAYORDER=
